<?xml version="1.0" standalone="no"?>
<svg width="1375" height="1520" xmlns="http://www.w3.org/2000/svg" font-family="Arial, Helvetica, sans-serif" style="background-color:white">
  <style>
    .layerRectangle {
      stroke: black;
      stroke-dasharray: 5,5;
      fill: url('#layers')
    }
    .layerText {
      fill: purple;
      font-size: 150%;
      filter: url(#outlineWhite);
    }
    .nodeFolder {
      fill: #aaaaaa33;
      stroke: whitesmoke;
    }
    .nodeFile {
      fill: #ffffffee;
      stroke: gray;
    }
    .folderName {
      font-size: 180%;
      fill : white;
      font-weight: bolder;
      text-anchor: start;
      letter-spacing : 1px;
      dominant-baseline: hanging;
      filter: url(#shadow);
    }
    .nodeName {
      fill : black;
      font-weight: bold;
      text-anchor: middle;
      dominant-baseline: central;
      filter: url(#outlineWhite);
    }
    .line {
      fill : none;
      stroke-width: 3;
      opacity: 0.5;
    }
    .line:hover {
      stroke-width: 6;
      opacity: 1;
    }

    </style>
  <defs id='idSvgDef'>
    <linearGradient id="layers" gradientTransform="rotate(90)">
      <stop offset="0%"  stop-color="rgba(105, 24, 114, 0.10)"/>
      <stop offset="100%" stop-color="rgba(105, 24, 114, 0.30)" />
    </linearGradient>
    <filter id="shadow">
      <feGaussianBlur in="SourceAlpha" stdDeviation="2"/>
      <feOffset dx="1" dy="1" result="offsetblur"/>
      <feFlood flood-color="black"/>
      <feComposite in2="offsetblur" operator="in"/>
      <feMerge>
        <feMergeNode/>
        <feMergeNode in="SourceGraphic"/>
      </feMerge>
    </filter>
    <filter id="outlineWhite">
      <feMorphology in="SourceAlpha" result="DILATED" operator="dilate" radius="2"/>
      <feFlood flood-color="#ffffffaa" flood-opacity="1" result="WHITE"/>
      <feComposite in="WHITE" in2="DILATED" operator="in" result="OUTLINE"/>
      <feMerge>
        <feMergeNode in="OUTLINE" />
        <feMergeNode in="SourceGraphic" />
      </feMerge>
    </filter>
    <filter id="outlineBlack">
      <feMorphology in="SourceAlpha" result="DILATED" operator="dilate" radius="2"/>
      <feFlood flood-color="#000000aa" flood-opacity="1" result="BLACK"/>
      <feComposite in="BLACK" in2="DILATED" operator="in" result="OUTLINE"/>
      <feMerge>
        <feMergeNode in="OUTLINE"/>
        <feMergeNode in="SourceGraphic"/>
      </feMerge>
    </filter>
    <marker id='lineEnd' viewBox= '0 -5 30 10' refX='12' orient='auto'>
      <path d='M0,-16L32,0L0,16' fill='#3058FFaa'/>
    </marker>
    <marker id='lineStart' viewBox= '0 -4 8 8' refX='4' orient='auto'>
      <circle cx='4' r='4' fill='#377E22aa'/>
    </marker>
  </defs>
  <g id='Layers_Rects'>
    <g id='Layer:0 of glad'>
      <rect x="17.5" y="35" width="1340" height="600" rx="2" ry="2" class="layerRectangle" id='glad 0'/>
    </g>
    <g id='Layer:0 of test'>
      <rect x="35" y="70" width="970" height="530" rx="2" ry="2" class="layerRectangle" id='test 0'/>
    </g>
    <g id='Layer:0 of demoApp'>
      <rect x="52.5" y="105" width="635" height="80" rx="2" ry="2" class="layerRectangle" id='demoApp 0'/>
    </g>
    <g id='Layer:1 of demoApp'>
      <rect x="52.5" y="185" width="635" height="150" rx="2" ry="2" class="layerRectangle" id='demoApp 1'/>
    </g>
    <g id='Layer:0 of presentation'>
      <rect x="220" y="220" width="300" height="80" rx="2" ry="2" class="layerRectangle" id='presentation 0'/>
    </g>
    <g id='Layer:2 of demoApp'>
      <rect x="52.5" y="335" width="635" height="230" rx="2" ry="2" class="layerRectangle" id='demoApp 2'/>
    </g>
    <g id='Layer:0 of models'>
      <rect x="70" y="370" width="600" height="80" rx="2" ry="2" class="layerRectangle" id='models 0'/>
    </g>
    <g id='Layer:1 of models'>
      <rect x="70" y="450" width="600" height="80" rx="2" ry="2" class="layerRectangle" id='models 1'/>
    </g>
    <g id='Layer:0 of cli'>
      <rect x="1040" y="70" width="300" height="80" rx="2" ry="2" class="layerRectangle" id='cli 0'/>
    </g>
    <g id='Layer:1 of glad'>
      <rect x="17.5" y="635" width="1340" height="850" rx="2" ry="2" class="layerRectangle" id='glad 1'/>
    </g>
    <g id='Layer:0 of lib'>
      <rect x="52.5" y="670" width="1270" height="80" rx="2" ry="2" class="layerRectangle" id='lib 0'/>
    </g>
    <g id='Layer:1 of lib'>
      <rect x="52.5" y="750" width="1270" height="230" rx="2" ry="2" class="layerRectangle" id='lib 1'/>
    </g>
    <g id='Layer:0 of render'>
      <rect x="237.5" y="785" width="900" height="80" rx="2" ry="2" class="layerRectangle" id='render 0'/>
    </g>
    <g id='Layer:1 of render'>
      <rect x="237.5" y="865" width="900" height="80" rx="2" ry="2" class="layerRectangle" id='render 1'/>
    </g>
    <g id='Layer:2 of lib'>
      <rect x="52.5" y="980" width="1270" height="470" rx="2" ry="2" class="layerRectangle" id='lib 2'/>
    </g>
    <g id='Layer:0 of models'>
      <rect x="70" y="1015" width="600" height="80" rx="2" ry="2" class="layerRectangle" id='models 0'/>
    </g>
    <g id='Layer:1 of models'>
      <rect x="70" y="1095" width="600" height="80" rx="2" ry="2" class="layerRectangle" id='models 1'/>
    </g>
    <g id='Layer:2 of models'>
      <rect x="70" y="1175" width="600" height="80" rx="2" ry="2" class="layerRectangle" id='models 2'/>
    </g>
    <g id='Layer:3 of models'>
      <rect x="70" y="1255" width="600" height="80" rx="2" ry="2" class="layerRectangle" id='models 3'/>
    </g>
    <g id='Layer:4 of models'>
      <rect x="70" y="1335" width="600" height="80" rx="2" ry="2" class="layerRectangle" id='models 4'/>
    </g>
    <g id='Layer:0 of util'>
      <rect x="705" y="1015" width="600" height="80" rx="2" ry="2" class="layerRectangle" id='util 0'/>
    </g>
  </g>
  <g id='Node_glad'>
    <rect x="4" y="4" width="1367" height="1512" rx="2" ry="2" class="nodeFolder"/>
    <g id='Node_test'>
      <rect x="21.5" y="39" width="997" height="592" rx="2" ry="2" class="nodeFolder"/>
      <g id='Node_demoApp'>
        <rect x="39" y="74" width="662" height="522" rx="2" ry="2" class="nodeFolder"/>
        <g id='Node_index.js'>
          <rect x="224" y="109" width="292" height="72" rx="8" ry="8" class="nodeFile"/>
        </g>
        <g id='Node_presentation'>
          <rect x="206.5" y="189" width="327" height="142" rx="2" ry="2" class="nodeFolder"/>
          <g id='Node_renderTransportation.js'>
            <rect x="224" y="224" width="292" height="72" rx="8" ry="8" class="nodeFile"/>
          </g>
        </g>
        <g id='Node_models'>
          <rect x="56.5" y="339" width="627" height="222" rx="2" ry="2" class="nodeFolder"/>
          <g id='Node_car.js'>
            <rect x="74" y="374" width="292" height="72" rx="8" ry="8" class="nodeFile"/>
          </g>
          <g id='Node_truck.js'>
            <rect x="374" y="374" width="292" height="72" rx="8" ry="8" class="nodeFile"/>
          </g>
          <g id='Node_transport.js'>
            <rect x="224" y="454" width="292" height="72" rx="8" ry="8" class="nodeFile"/>
          </g>
        </g>
      </g>
      <g id='Node_test.js'>
        <rect x="709" y="74" width="292" height="72" rx="8" ry="8" class="nodeFile"/>
      </g>
    </g>
    <g id='Node_lib'>
      <rect x="39" y="639" width="1297" height="842" rx="2" ry="2" class="nodeFolder"/>
      <g id='Node_glad.js'>
        <rect x="541.5" y="674" width="292" height="72" rx="8" ry="8" class="nodeFile"/>
      </g>
      <g id='Node_render'>
        <rect x="224" y="754" width="927" height="222" rx="2" ry="2" class="nodeFolder"/>
        <g id='Node_renderAsPoster.js'>
          <rect x="241.5" y="789" width="292" height="72" rx="8" ry="8" class="nodeFile"/>
        </g>
        <g id='Node_renderAsGrid.js'>
          <rect x="541.5" y="789" width="292" height="72" rx="8" ry="8" class="nodeFile"/>
        </g>
        <g id='Node_renderAsLayers.js'>
          <rect x="841.5" y="789" width="292" height="72" rx="8" ry="8" class="nodeFile"/>
        </g>
        <g id='Node_renderBase.js'>
          <rect x="541.5" y="869" width="292" height="72" rx="8" ry="8" class="nodeFile"/>
        </g>
      </g>
      <g id='Node_models'>
        <rect x="56.5" y="984" width="627" height="462" rx="2" ry="2" class="nodeFolder"/>
        <g id='Node_graph.js'>
          <rect x="74" y="1019" width="292" height="72" rx="8" ry="8" class="nodeFile"/>
        </g>
        <g id='Node_layers.js'>
          <rect x="374" y="1019" width="292" height="72" rx="8" ry="8" class="nodeFile"/>
        </g>
        <g id='Node_layer.js'>
          <rect x="74" y="1099" width="292" height="72" rx="8" ry="8" class="nodeFile"/>
        </g>
        <g id='Node_edges.js'>
          <rect x="374" y="1099" width="292" height="72" rx="8" ry="8" class="nodeFile"/>
        </g>
        <g id='Node_edge.js'>
          <rect x="74" y="1179" width="292" height="72" rx="8" ry="8" class="nodeFile"/>
        </g>
        <g id='Node_containers.js'>
          <rect x="374" y="1179" width="292" height="72" rx="8" ry="8" class="nodeFile"/>
        </g>
        <g id='Node_container.js'>
          <rect x="224" y="1259" width="292" height="72" rx="8" ry="8" class="nodeFile"/>
        </g>
        <g id='Node_constants.js'>
          <rect x="74" y="1339" width="292" height="72" rx="8" ry="8" class="nodeFile"/>
        </g>
        <g id='Node_rectangle.js'>
          <rect x="374" y="1339" width="292" height="72" rx="8" ry="8" class="nodeFile"/>
        </g>
      </g>
      <g id='Node_util'>
        <rect x="691.5" y="984" width="627" height="142" rx="2" ry="2" class="nodeFolder"/>
        <g id='Node_strings.js'>
          <rect x="709" y="1019" width="292" height="72" rx="8" ry="8" class="nodeFile"/>
        </g>
        <g id='Node_svg.js'>
          <rect x="1009" y="1019" width="292" height="72" rx="8" ry="8" class="nodeFile"/>
        </g>
      </g>
    </g>
    <g id='Node_cli'>
      <rect x="1026.5" y="39" width="327" height="142" rx="2" ry="2" class="nodeFolder"/>
      <g id='Node_index.js'>
        <rect x="1044" y="74" width="292" height="72" rx="8" ry="8" class="nodeFile"/>
      </g>
    </g>
  </g>
  <g id='Edges'>
    <path class="line" d="M350 430 C 360 450,230 450, 240 470" fill="none" stroke="#377E2288" />
    <path class="line" d="M500 1315 C 510 1335,80 1335, 90 1355" fill="none" stroke="#377E2288" />
    <path class="line" d="M500 1315 C 510 1335,380 1335, 390 1355" fill="none" stroke="#377E2288" />
    <path class="line" d="M650 1235 C 660 1295,80 1295, 90 1355" fill="none" stroke="#377E2288" />
    <path class="line" d="M650 1235 C 660 1255,230 1255, 240 1275" fill="none" stroke="#377E2288" />
    <path class="line" d="M350 1235 C 360 1255,230 1255, 240 1275" fill="none" stroke="#377E2288" />
    <path class="line" d="M650 1155 C 660 1215,230 1215, 240 1275" fill="none" stroke="#377E2288" />
    <path class="line" d="M650 1155 C 660 1175,80 1175, 90 1195" fill="none" stroke="#377E2288" />
    <path class="line" d="M817.5 730 C 837.5 1042,70 1043, 90 1355" fill="none" stroke="#377E2288" />
    <path class="line" d="M817.5 730 C 835.5 1002,222 1003, 240 1275" fill="none" stroke="#377E2288" />
    <path class="line" d="M817.5 730 C 827.5 882,80 883, 90 1035" fill="none" stroke="#377E2288" />
    <path class="line" d="M817.5 730 C 827.5 767,547.5 768, 557.5 805" fill="none" stroke="#377E2288" />
    <path class="line" d="M817.5 730 C 827.5 767,847.5 768, 857.5 805" fill="none" stroke="#377E2288" />
    <path class="line" d="M817.5 730 C 827.5 767,247.5 768, 257.5 805" fill="none" stroke="#377E2288" />
    <path class="line" d="M817.5 730 C 827.5 882,715 883, 725 1035" fill="none" stroke="#377E2288" />
    <path class="line" d="M350 1075 C 360 1175,230 1175, 240 1275" fill="none" stroke="#377E2288" />
    <path class="line" d="M350 1075 C 360 1135,80 1135, 90 1195" fill="none" stroke="#377E2288" />
    <path class="line" d="M350 1075 C 360 1095,380 1095, 390 1115" fill="none" stroke="#377E2288" />
    <path class="line" d="M500 165 C 510 277,80 278, 90 390" fill="none" stroke="#377E2288" />
    <path class="line" d="M1320 130 C 1360 742,50 743, 90 1355" fill="none" stroke="#377E2288" />
    <path class="line" d="M1320 130 C 1338 410,539.5 410, 557.5 690" fill="none" stroke="#377E2288" />
    <path class="line" d="M500 165 C 510 202,230 203, 240 240" fill="none" stroke="#377E2288" />
    <path class="line" d="M500 165 C 510 277,380 278, 390 390" fill="none" stroke="#377E2288" />
    <path class="line" d="M350 1155 C 360 1255,80 1255, 90 1355" fill="none" stroke="#377E2288" />
    <path class="line" d="M350 1155 C 360 1175,380 1175, 390 1195" fill="none" stroke="#377E2288" />
    <path class="line" d="M350 1155 C 360 1255,380 1255, 390 1355" fill="none" stroke="#377E2288" />
    <path class="line" d="M650 1075 C 660 1215,80 1215, 90 1355" fill="none" stroke="#377E2288" />
    <path class="line" d="M650 1075 C 660 1175,230 1175, 240 1275" fill="none" stroke="#377E2288" />
    <path class="line" d="M650 1075 C 660 1095,80 1095, 90 1115" fill="none" stroke="#377E2288" />
    <path class="line" d="M817.5 845 C 834.5 1100,73 1100, 90 1355" fill="none" stroke="#377E2288" />
    <path class="line" d="M817.5 845 C 831.5 1060,226 1060, 240 1275" fill="none" stroke="#377E2288" />
    <path class="line" d="M817.5 845 C 827.5 940,80 940, 90 1035" fill="none" stroke="#377E2288" />
    <path class="line" d="M817.5 845 C 827.5 865,547.5 865, 557.5 885" fill="none" stroke="#377E2288" />
    <path class="line" d="M1117.5 845 C 1134.5 1100,73 1100, 90 1355" fill="none" stroke="#377E2288" />
    <path class="line" d="M1117.5 845 C 1127.5 940,80 940, 90 1035" fill="none" stroke="#377E2288" />
    <path class="line" d="M1117.5 845 C 1127.5 940,380 940, 390 1035" fill="none" stroke="#377E2288" />
    <path class="line" d="M1117.5 845 C 1127.5 865,547.5 865, 557.5 885" fill="none" stroke="#377E2288" />
    <path class="line" d="M517.5 845 C 534.5 1100,73 1100, 90 1355" fill="none" stroke="#377E2288" />
    <path class="line" d="M517.5 845 C 531.5 1060,226 1060, 240 1275" fill="none" stroke="#377E2288" />
    <path class="line" d="M517.5 845 C 527.5 940,80 940, 90 1035" fill="none" stroke="#377E2288" />
    <path class="line" d="M517.5 845 C 527.5 940,380 940, 390 1035" fill="none" stroke="#377E2288" />
    <path class="line" d="M517.5 845 C 527.5 865,547.5 865, 557.5 885" fill="none" stroke="#377E2288" />
    <path class="line" d="M817.5 925 C 831.5 1140,76 1140, 90 1355" fill="none" stroke="#377E2288" />
    <path class="line" d="M817.5 925 C 828.5 1100,229 1100, 240 1275" fill="none" stroke="#377E2288" />
    <path class="line" d="M817.5 925 C 827.5 1060,80 1060, 90 1195" fill="none" stroke="#377E2288" />
    <path class="line" d="M817.5 925 C 827.5 1020,380 1020, 390 1115" fill="none" stroke="#377E2288" />
    <path class="line" d="M817.5 925 C 827.5 980,80 980, 90 1035" fill="none" stroke="#377E2288" />
    <path class="line" d="M817.5 925 C 827.5 1020,80 1020, 90 1115" fill="none" stroke="#377E2288" />
    <path class="line" d="M817.5 925 C 827.5 980,380 980, 390 1035" fill="none" stroke="#377E2288" />
    <path class="line" d="M817.5 925 C 831.5 1140,376 1140, 390 1355" fill="none" stroke="#377E2288" />
    <path class="line" d="M817.5 925 C 827.5 980,715 980, 725 1035" fill="none" stroke="#377E2288" />
    <path class="line" d="M817.5 925 C 827.5 980,1015 980, 1025 1035" fill="none" stroke="#377E2288" />
    <path class="line" d="M500 280 C 510 375,230 375, 240 470" fill="none" stroke="#377E2288" />
    <path class="line" d="M985 130 C 1025 742,50 743, 90 1355" fill="none" stroke="#377E2288" />
    <path class="line" d="M985 130 C 1023 702,202 703, 240 1275" fill="none" stroke="#377E2288" />
    <path class="line" d="M985 130 C 1015 582,60 583, 90 1035" fill="none" stroke="#377E2288" />
    <path class="line" d="M985 130 C 1007 467,535.5 468, 557.5 805" fill="none" stroke="#377E2288" />
    <path class="line" d="M985 130 C 1007 467,835.5 468, 857.5 805" fill="none" stroke="#377E2288" />
    <path class="line" d="M985 130 C 1007 467,235.5 468, 257.5 805" fill="none" stroke="#377E2288" />
    <path class="line" d="M650 430 C 660 450,230 450, 240 470" fill="none" stroke="#377E2288" />
  </g>
  <g id='Counters_glad'>
    <g id='Counters_test'>
      <g id='Counters_demoApp'>
        <g id='Counters_index.js'>
          <g>
            <circle cx="500" cy="165" r="10" fill="green"/>
            <text x="500" y="165" fill="white" font-size="10" text-anchor="middle" dominant-baseline="central">3</text>
          </g>
        </g>
        <g id='Counters_presentation'>
          <g id='Counters_renderTransportation.js'>
            <g>
              <circle cx="500" cy="280" r="10" fill="green"/>
              <text x="500" y="280" fill="white" font-size="10" text-anchor="middle" dominant-baseline="central">1</text>
            </g>
            <g>
              <circle cx="240" cy="240" r="10" fill="blue"/>
              <text x="240" y="240" fill="white" font-size="10" text-anchor="middle" dominant-baseline="central">1</text>
            </g>
          </g>
        </g>
        <g id='Counters_models'>
          <g id='Counters_car.js'>
            <g>
              <circle cx="350" cy="430" r="10" fill="green"/>
              <text x="350" y="430" fill="white" font-size="10" text-anchor="middle" dominant-baseline="central">1</text>
            </g>
            <g>
              <circle cx="90" cy="390" r="10" fill="blue"/>
              <text x="90" y="390" fill="white" font-size="10" text-anchor="middle" dominant-baseline="central">1</text>
            </g>
          </g>
          <g id='Counters_truck.js'>
            <g>
              <circle cx="650" cy="430" r="10" fill="green"/>
              <text x="650" y="430" fill="white" font-size="10" text-anchor="middle" dominant-baseline="central">1</text>
            </g>
            <g>
              <circle cx="390" cy="390" r="10" fill="blue"/>
              <text x="390" y="390" fill="white" font-size="10" text-anchor="middle" dominant-baseline="central">1</text>
            </g>
          </g>
          <g id='Counters_transport.js'>
            <g>
              <circle cx="240" cy="470" r="10" fill="blue"/>
              <text x="240" y="470" fill="white" font-size="10" text-anchor="middle" dominant-baseline="central">3</text>
            </g>
          </g>
        </g>
      </g>
      <g id='Counters_test.js'>
        <g>
          <circle cx="985" cy="130" r="10" fill="green"/>
          <text x="985" y="130" fill="white" font-size="10" text-anchor="middle" dominant-baseline="central">6</text>
        </g>
      </g>
    </g>
    <g id='Counters_lib'>
      <g id='Counters_glad.js'>
        <g>
          <circle cx="817.5" cy="730" r="10" fill="green"/>
          <text x="817.5" y="730" fill="white" font-size="10" text-anchor="middle" dominant-baseline="central">7</text>
        </g>
        <g>
          <circle cx="557.5" cy="690" r="10" fill="blue"/>
          <text x="557.5" y="690" fill="white" font-size="10" text-anchor="middle" dominant-baseline="central">1</text>
        </g>
      </g>
      <g id='Counters_render'>
        <g id='Counters_renderAsPoster.js'>
          <g>
            <circle cx="517.5" cy="845" r="10" fill="green"/>
            <text x="517.5" y="845" fill="white" font-size="10" text-anchor="middle" dominant-baseline="central">5</text>
          </g>
          <g>
            <circle cx="257.5" cy="805" r="10" fill="blue"/>
            <text x="257.5" y="805" fill="white" font-size="10" text-anchor="middle" dominant-baseline="central">2</text>
          </g>
        </g>
        <g id='Counters_renderAsGrid.js'>
          <g>
            <circle cx="817.5" cy="845" r="10" fill="green"/>
            <text x="817.5" y="845" fill="white" font-size="10" text-anchor="middle" dominant-baseline="central">4</text>
          </g>
          <g>
            <circle cx="557.5" cy="805" r="10" fill="blue"/>
            <text x="557.5" y="805" fill="white" font-size="10" text-anchor="middle" dominant-baseline="central">2</text>
          </g>
        </g>
        <g id='Counters_renderAsLayers.js'>
          <g>
            <circle cx="1117.5" cy="845" r="10" fill="green"/>
            <text x="1117.5" y="845" fill="white" font-size="10" text-anchor="middle" dominant-baseline="central">4</text>
          </g>
          <g>
            <circle cx="857.5" cy="805" r="10" fill="blue"/>
            <text x="857.5" y="805" fill="white" font-size="10" text-anchor="middle" dominant-baseline="central">2</text>
          </g>
        </g>
        <g id='Counters_renderBase.js'>
          <g>
            <circle cx="817.5" cy="925" r="10" fill="green"/>
            <text x="817.5" y="925" fill="white" font-size="10" text-anchor="middle" dominant-baseline="central">10</text>
          </g>
          <g>
            <circle cx="557.5" cy="885" r="10" fill="blue"/>
            <text x="557.5" y="885" fill="white" font-size="10" text-anchor="middle" dominant-baseline="central">3</text>
          </g>
        </g>
      </g>
      <g id='Counters_models'>
        <g id='Counters_graph.js'>
          <g>
            <circle cx="350" cy="1075" r="10" fill="green"/>
            <text x="350" y="1075" fill="white" font-size="10" text-anchor="middle" dominant-baseline="central">3</text>
          </g>
          <g>
            <circle cx="90" cy="1035" r="10" fill="blue"/>
            <text x="90" y="1035" fill="white" font-size="10" text-anchor="middle" dominant-baseline="central">6</text>
          </g>
        </g>
        <g id='Counters_layers.js'>
          <g>
            <circle cx="650" cy="1075" r="10" fill="green"/>
            <text x="650" y="1075" fill="white" font-size="10" text-anchor="middle" dominant-baseline="central">3</text>
          </g>
          <g>
            <circle cx="390" cy="1035" r="10" fill="blue"/>
            <text x="390" y="1035" fill="white" font-size="10" text-anchor="middle" dominant-baseline="central">3</text>
          </g>
        </g>
        <g id='Counters_layer.js'>
          <g>
            <circle cx="350" cy="1155" r="10" fill="green"/>
            <text x="350" y="1155" fill="white" font-size="10" text-anchor="middle" dominant-baseline="central">3</text>
          </g>
          <g>
            <circle cx="90" cy="1115" r="10" fill="blue"/>
            <text x="90" y="1115" fill="white" font-size="10" text-anchor="middle" dominant-baseline="central">2</text>
          </g>
        </g>
        <g id='Counters_edges.js'>
          <g>
            <circle cx="650" cy="1155" r="10" fill="green"/>
            <text x="650" y="1155" fill="white" font-size="10" text-anchor="middle" dominant-baseline="central">2</text>
          </g>
          <g>
            <circle cx="390" cy="1115" r="10" fill="blue"/>
            <text x="390" y="1115" fill="white" font-size="10" text-anchor="middle" dominant-baseline="central">2</text>
          </g>
        </g>
        <g id='Counters_edge.js'>
          <g>
            <circle cx="350" cy="1235" r="10" fill="green"/>
            <text x="350" y="1235" fill="white" font-size="10" text-anchor="middle" dominant-baseline="central">1</text>
          </g>
          <g>
            <circle cx="90" cy="1195" r="10" fill="blue"/>
            <text x="90" y="1195" fill="white" font-size="10" text-anchor="middle" dominant-baseline="central">3</text>
          </g>
        </g>
        <g id='Counters_containers.js'>
          <g>
            <circle cx="650" cy="1235" r="10" fill="green"/>
            <text x="650" y="1235" fill="white" font-size="10" text-anchor="middle" dominant-baseline="central">2</text>
          </g>
          <g>
            <circle cx="390" cy="1195" r="10" fill="blue"/>
            <text x="390" y="1195" fill="white" font-size="10" text-anchor="middle" dominant-baseline="central">1</text>
          </g>
        </g>
        <g id='Counters_container.js'>
          <g>
            <circle cx="500" cy="1315" r="10" fill="green"/>
            <text x="500" y="1315" fill="white" font-size="10" text-anchor="middle" dominant-baseline="central">2</text>
          </g>
          <g>
            <circle cx="240" cy="1275" r="10" fill="blue"/>
            <text x="240" y="1275" fill="white" font-size="10" text-anchor="middle" dominant-baseline="central">10</text>
          </g>
        </g>
        <g id='Counters_constants.js'>
          <g>
            <circle cx="90" cy="1355" r="10" fill="blue"/>
            <text x="90" y="1355" fill="white" font-size="10" text-anchor="middle" dominant-baseline="central">11</text>
          </g>
        </g>
        <g id='Counters_rectangle.js'>
          <g>
            <circle cx="390" cy="1355" r="10" fill="blue"/>
            <text x="390" y="1355" fill="white" font-size="10" text-anchor="middle" dominant-baseline="central">3</text>
          </g>
        </g>
      </g>
      <g id='Counters_util'>
        <g id='Counters_strings.js'>
          <g>
            <circle cx="725" cy="1035" r="10" fill="blue"/>
            <text x="725" y="1035" fill="white" font-size="10" text-anchor="middle" dominant-baseline="central">2</text>
          </g>
        </g>
        <g id='Counters_svg.js'>
          <g>
            <circle cx="1025" cy="1035" r="10" fill="blue"/>
            <text x="1025" y="1035" fill="white" font-size="10" text-anchor="middle" dominant-baseline="central">1</text>
          </g>
        </g>
      </g>
    </g>
    <g id='Counters_cli'>
      <g id='Counters_index.js'>
        <g>
          <circle cx="1320" cy="130" r="10" fill="green"/>
          <text x="1320" y="130" fill="white" font-size="10" text-anchor="middle" dominant-baseline="central">2</text>
        </g>
      </g>
    </g>
  </g>
  <g id='Labels_glad'>
    <text class="folderName" x="10" y="10">glad</text>
    <g id='Labels_test'>
      <text class="folderName" x="27.5" y="45">test</text>
      <g id='Labels_demoApp'>
        <text class="folderName" x="45" y="80">demoApp</text>
        <g id='Labels_index.js'>
          <text class="nodeName" x="370" y="145" font-size="120%">index.js</text>
        </g>
        <g id='Labels_presentation'>
          <text class="folderName" x="212.5" y="195">presentation</text>
          <g id='Labels_renderTransportation.js'>
            <text class="nodeName" x="370" y="260" font-size="120%">renderTransportation.js</text>
          </g>
        </g>
        <g id='Labels_models'>
          <text class="folderName" x="62.5" y="345">models</text>
          <g id='Labels_car.js'>
            <text class="nodeName" x="220" y="410" font-size="120%">car.js</text>
          </g>
          <g id='Labels_truck.js'>
            <text class="nodeName" x="520" y="410" font-size="120%">truck.js</text>
          </g>
          <g id='Labels_transport.js'>
            <text class="nodeName" x="370" y="490" font-size="120%">transport.js</text>
          </g>
        </g>
      </g>
      <g id='Labels_test.js'>
        <text class="nodeName" x="855" y="110" font-size="120%">test.js</text>
      </g>
    </g>
    <g id='Labels_lib'>
      <text class="folderName" x="45" y="645">lib</text>
      <g id='Labels_glad.js'>
        <text class="nodeName" x="687.5" y="710" font-size="120%">glad.js</text>
      </g>
      <g id='Labels_render'>
        <text class="folderName" x="230" y="760">render</text>
        <g id='Labels_renderAsPoster.js'>
          <text class="nodeName" x="387.5" y="825" font-size="120%">renderAsPoster.js</text>
        </g>
        <g id='Labels_renderAsGrid.js'>
          <text class="nodeName" x="687.5" y="825" font-size="120%">renderAsGrid.js</text>
        </g>
        <g id='Labels_renderAsLayers.js'>
          <text class="nodeName" x="987.5" y="825" font-size="120%">renderAsLayers.js</text>
        </g>
        <g id='Labels_renderBase.js'>
          <text class="nodeName" x="687.5" y="905" font-size="120%">renderBase.js</text>
        </g>
      </g>
      <g id='Labels_models'>
        <text class="folderName" x="62.5" y="990">models</text>
        <g id='Labels_graph.js'>
          <text class="nodeName" x="220" y="1055" font-size="120%">graph.js</text>
        </g>
        <g id='Labels_layers.js'>
          <text class="nodeName" x="520" y="1055" font-size="120%">layers.js</text>
        </g>
        <g id='Labels_layer.js'>
          <text class="nodeName" x="220" y="1135" font-size="120%">layer.js</text>
        </g>
        <g id='Labels_edges.js'>
          <text class="nodeName" x="520" y="1135" font-size="120%">edges.js</text>
        </g>
        <g id='Labels_edge.js'>
          <text class="nodeName" x="220" y="1215" font-size="120%">edge.js</text>
        </g>
        <g id='Labels_containers.js'>
          <text class="nodeName" x="520" y="1215" font-size="120%">containers.js</text>
        </g>
        <g id='Labels_container.js'>
          <text class="nodeName" x="370" y="1295" font-size="120%">container.js</text>
        </g>
        <g id='Labels_constants.js'>
          <text class="nodeName" x="220" y="1375" font-size="120%">constants.js</text>
        </g>
        <g id='Labels_rectangle.js'>
          <text class="nodeName" x="520" y="1375" font-size="120%">rectangle.js</text>
        </g>
      </g>
      <g id='Labels_util'>
        <text class="folderName" x="697.5" y="990">util</text>
        <g id='Labels_strings.js'>
          <text class="nodeName" x="855" y="1055" font-size="120%">strings.js</text>
        </g>
        <g id='Labels_svg.js'>
          <text class="nodeName" x="1155" y="1055" font-size="120%">svg.js</text>
        </g>
      </g>
    </g>
    <g id='Labels_cli'>
      <text class="folderName" x="1032.5" y="45">cli</text>
      <g id='Labels_index.js'>
        <text class="nodeName" x="1190" y="110" font-size="120%">index.js</text>
      </g>
    </g>
  </g>
  <g id='Layers_Text'>
    <g id='Layer:0 of glad'>
      <text x="1347.5" y="45" class='layerText' dominant-baseline="hanging" text-anchor="end" >1 </text>
    </g>
    <g id='Layer:0 of test'>
      <text x="995" y="80" class='layerText' dominant-baseline="hanging" text-anchor="end" >1 </text>
    </g>
    <g id='Layer:0 of demoApp'>
      <text x="677.5" y="115" class='layerText' dominant-baseline="hanging" text-anchor="end" >1 </text>
    </g>
    <g id='Layer:1 of demoApp'>
      <text x="677.5" y="195" class='layerText' dominant-baseline="hanging" text-anchor="end" >2 </text>
    </g>
    <g id='Layer:0 of presentation'>
      <text x="510" y="230" class='layerText' dominant-baseline="hanging" text-anchor="end" >1 </text>
    </g>
    <g id='Layer:2 of demoApp'>
      <text x="677.5" y="345" class='layerText' dominant-baseline="hanging" text-anchor="end" >3 </text>
    </g>
    <g id='Layer:0 of models'>
      <text x="660" y="380" class='layerText' dominant-baseline="hanging" text-anchor="end" >1 </text>
    </g>
    <g id='Layer:1 of models'>
      <text x="660" y="460" class='layerText' dominant-baseline="hanging" text-anchor="end" >2 </text>
    </g>
    <g id='Layer:0 of cli'>
      <text x="1330" y="80" class='layerText' dominant-baseline="hanging" text-anchor="end" >1 </text>
    </g>
    <g id='Layer:1 of glad'>
      <text x="1347.5" y="645" class='layerText' dominant-baseline="hanging" text-anchor="end" >2 </text>
    </g>
    <g id='Layer:0 of lib'>
      <text x="1312.5" y="680" class='layerText' dominant-baseline="hanging" text-anchor="end" >1 </text>
    </g>
    <g id='Layer:1 of lib'>
      <text x="1312.5" y="760" class='layerText' dominant-baseline="hanging" text-anchor="end" >2 </text>
    </g>
    <g id='Layer:0 of render'>
      <text x="1127.5" y="795" class='layerText' dominant-baseline="hanging" text-anchor="end" >1 </text>
    </g>
    <g id='Layer:1 of render'>
      <text x="1127.5" y="875" class='layerText' dominant-baseline="hanging" text-anchor="end" >2 </text>
    </g>
    <g id='Layer:2 of lib'>
      <text x="1312.5" y="990" class='layerText' dominant-baseline="hanging" text-anchor="end" >3 </text>
    </g>
    <g id='Layer:0 of models'>
      <text x="660" y="1025" class='layerText' dominant-baseline="hanging" text-anchor="end" >1 </text>
    </g>
    <g id='Layer:1 of models'>
      <text x="660" y="1105" class='layerText' dominant-baseline="hanging" text-anchor="end" >2 </text>
    </g>
    <g id='Layer:2 of models'>
      <text x="660" y="1185" class='layerText' dominant-baseline="hanging" text-anchor="end" >3 </text>
    </g>
    <g id='Layer:3 of models'>
      <text x="660" y="1265" class='layerText' dominant-baseline="hanging" text-anchor="end" >4 </text>
    </g>
    <g id='Layer:4 of models'>
      <text x="660" y="1345" class='layerText' dominant-baseline="hanging" text-anchor="end" >5 </text>
    </g>
    <g id='Layer:0 of util'>
      <text x="1295" y="1025" class='layerText' dominant-baseline="hanging" text-anchor="end" >1 </text>
    </g>
  </g>
</svg>