<?xml version="1.0" standalone="no"?>
<svg width="1340" height="1070" xmlns="http://www.w3.org/2000/svg" font-family="Arial, Helvetica, sans-serif" style="background-color:white">
  <style>
    .layerRectangle {
      stroke: black;
      stroke-dasharray: 5,5;
      fill: url('#layers')
    }
    .layerText {
      fill: purple;
      font-size: 150%;
      filter: url(#outlineWhite);
    }
    .nodeFolder {
      fill: #aaaaaa33;
      stroke: whitesmoke;
    }
    .nodeFile {
      fill: #ffffffee;
      stroke: gray;
    }
    .folderName {
      font-size: 180%;
      fill : white;
      font-weight: bolder;
      text-anchor: start;
      letter-spacing : 1px;
      dominant-baseline: hanging;
      filter: url(#shadow);
    }
    .nodeName {
      fill : black;
      font-weight: bold;
      text-anchor: middle;
      dominant-baseline: central;
      filter: url(#outlineWhite);
    }
    .line {
      fill : none;
      stroke-width: 3;
      opacity: 0.5;
    }
    .line:hover {
      stroke-width: 6;
      opacity: 1;
    }

    </style>
  <defs id='idSvgDef'>
    <linearGradient id="layers" gradientTransform="rotate(90)">
      <stop offset="0%"  stop-color="rgba(105, 24, 114, 0.10)"/>
      <stop offset="100%" stop-color="rgba(105, 24, 114, 0.30)" />
    </linearGradient>
    <filter id="shadow">
      <feGaussianBlur in="SourceAlpha" stdDeviation="2"/>
      <feOffset dx="1" dy="1" result="offsetblur"/>
      <feFlood flood-color="black"/>
      <feComposite in2="offsetblur" operator="in"/>
      <feMerge>
        <feMergeNode/>
        <feMergeNode in="SourceGraphic"/>
      </feMerge>
    </filter>
    <filter id="outlineWhite">
      <feMorphology in="SourceAlpha" result="DILATED" operator="dilate" radius="2"/>
      <feFlood flood-color="#ffffffaa" flood-opacity="1" result="WHITE"/>
      <feComposite in="WHITE" in2="DILATED" operator="in" result="OUTLINE"/>
      <feMerge>
        <feMergeNode in="OUTLINE" />
        <feMergeNode in="SourceGraphic" />
      </feMerge>
    </filter>
    <filter id="outlineBlack">
      <feMorphology in="SourceAlpha" result="DILATED" operator="dilate" radius="2"/>
      <feFlood flood-color="#000000aa" flood-opacity="1" result="BLACK"/>
      <feComposite in="BLACK" in2="DILATED" operator="in" result="OUTLINE"/>
      <feMerge>
        <feMergeNode in="OUTLINE"/>
        <feMergeNode in="SourceGraphic"/>
      </feMerge>
    </filter>
    <marker id='lineEnd' viewBox= '0 -5 30 10' refX='12' orient='auto'>
      <path d='M0,-16L32,0L0,16' fill='#3058FFaa'/>
    </marker>
    <marker id='lineStart' viewBox= '0 -4 8 8' refX='4' orient='auto'>
      <circle cx='4' r='4' fill='#377E22aa'/>
    </marker>
  </defs>
  <g id='Layers_Rects'>
    <g id='Layer:0 of glad'>
      <rect x="17.5" y="35" width="1305" height="150" rx="2" ry="2" class="layerRectangle" id='glad 0'/>
    </g>
    <g id='Layer:0 of test'>
      <rect x="352.5" y="70" width="300" height="80" rx="2" ry="2" class="layerRectangle" id='test 0'/>
    </g>
    <g id='Layer:0 of cli'>
      <rect x="687.5" y="70" width="300" height="80" rx="2" ry="2" class="layerRectangle" id='cli 0'/>
    </g>
    <g id='Layer:1 of glad'>
      <rect x="17.5" y="185" width="1305" height="850" rx="2" ry="2" class="layerRectangle" id='glad 1'/>
    </g>
    <g id='Layer:0 of lib'>
      <rect x="35" y="220" width="1270" height="80" rx="2" ry="2" class="layerRectangle" id='lib 0'/>
    </g>
    <g id='Layer:1 of lib'>
      <rect x="35" y="300" width="1270" height="230" rx="2" ry="2" class="layerRectangle" id='lib 1'/>
    </g>
    <g id='Layer:0 of render'>
      <rect x="220" y="335" width="900" height="80" rx="2" ry="2" class="layerRectangle" id='render 0'/>
    </g>
    <g id='Layer:1 of render'>
      <rect x="220" y="415" width="900" height="80" rx="2" ry="2" class="layerRectangle" id='render 1'/>
    </g>
    <g id='Layer:2 of lib'>
      <rect x="35" y="530" width="1270" height="470" rx="2" ry="2" class="layerRectangle" id='lib 2'/>
    </g>
    <g id='Layer:0 of models'>
      <rect x="52.5" y="565" width="600" height="80" rx="2" ry="2" class="layerRectangle" id='models 0'/>
    </g>
    <g id='Layer:1 of models'>
      <rect x="52.5" y="645" width="600" height="80" rx="2" ry="2" class="layerRectangle" id='models 1'/>
    </g>
    <g id='Layer:2 of models'>
      <rect x="52.5" y="725" width="600" height="80" rx="2" ry="2" class="layerRectangle" id='models 2'/>
    </g>
    <g id='Layer:3 of models'>
      <rect x="52.5" y="805" width="600" height="80" rx="2" ry="2" class="layerRectangle" id='models 3'/>
    </g>
    <g id='Layer:4 of models'>
      <rect x="52.5" y="885" width="600" height="80" rx="2" ry="2" class="layerRectangle" id='models 4'/>
    </g>
    <g id='Layer:0 of util'>
      <rect x="687.5" y="565" width="600" height="80" rx="2" ry="2" class="layerRectangle" id='util 0'/>
    </g>
  </g>
  <g id='Node_glad'>
    <rect x="4" y="4" width="1332" height="1062" rx="2" ry="2" class="nodeFolder"/>
    <g id='Node_lib'>
      <rect x="21.5" y="189" width="1297" height="842" rx="2" ry="2" class="nodeFolder"/>
      <g id='Node_glad.js'>
        <rect x="524" y="224" width="292" height="72" rx="8" ry="8" class="nodeFile"/>
      </g>
      <g id='Node_render'>
        <rect x="206.5" y="304" width="927" height="222" rx="2" ry="2" class="nodeFolder"/>
        <g id='Node_renderAsPoster.js'>
          <rect x="224" y="339" width="292" height="72" rx="8" ry="8" class="nodeFile"/>
        </g>
        <g id='Node_renderAsGrid.js'>
          <rect x="524" y="339" width="292" height="72" rx="8" ry="8" class="nodeFile"/>
        </g>
        <g id='Node_renderAsLayers.js'>
          <rect x="824" y="339" width="292" height="72" rx="8" ry="8" class="nodeFile"/>
        </g>
        <g id='Node_renderBase.js'>
          <rect x="524" y="419" width="292" height="72" rx="8" ry="8" class="nodeFile"/>
        </g>
      </g>
      <g id='Node_models'>
        <rect x="39" y="534" width="627" height="462" rx="2" ry="2" class="nodeFolder"/>
        <g id='Node_graph.js'>
          <rect x="56.5" y="569" width="292" height="72" rx="8" ry="8" class="nodeFile"/>
        </g>
        <g id='Node_layers.js'>
          <rect x="356.5" y="569" width="292" height="72" rx="8" ry="8" class="nodeFile"/>
        </g>
        <g id='Node_layer.js'>
          <rect x="56.5" y="649" width="292" height="72" rx="8" ry="8" class="nodeFile"/>
        </g>
        <g id='Node_edges.js'>
          <rect x="356.5" y="649" width="292" height="72" rx="8" ry="8" class="nodeFile"/>
        </g>
        <g id='Node_edge.js'>
          <rect x="56.5" y="729" width="292" height="72" rx="8" ry="8" class="nodeFile"/>
        </g>
        <g id='Node_containers.js'>
          <rect x="356.5" y="729" width="292" height="72" rx="8" ry="8" class="nodeFile"/>
        </g>
        <g id='Node_container.js'>
          <rect x="206.5" y="809" width="292" height="72" rx="8" ry="8" class="nodeFile"/>
        </g>
        <g id='Node_constants.js'>
          <rect x="56.5" y="889" width="292" height="72" rx="8" ry="8" class="nodeFile"/>
        </g>
        <g id='Node_rectangle.js'>
          <rect x="356.5" y="889" width="292" height="72" rx="8" ry="8" class="nodeFile"/>
        </g>
      </g>
      <g id='Node_util'>
        <rect x="674" y="534" width="627" height="142" rx="2" ry="2" class="nodeFolder"/>
        <g id='Node_strings.js'>
          <rect x="691.5" y="569" width="292" height="72" rx="8" ry="8" class="nodeFile"/>
        </g>
        <g id='Node_svg.js'>
          <rect x="991.5" y="569" width="292" height="72" rx="8" ry="8" class="nodeFile"/>
        </g>
      </g>
    </g>
    <g id='Node_test'>
      <rect x="339" y="39" width="327" height="142" rx="2" ry="2" class="nodeFolder"/>
      <g id='Node_test.js'>
        <rect x="356.5" y="74" width="292" height="72" rx="8" ry="8" class="nodeFile"/>
      </g>
    </g>
    <g id='Node_cli'>
      <rect x="674" y="39" width="327" height="142" rx="2" ry="2" class="nodeFolder"/>
      <g id='Node_index.js'>
        <rect x="691.5" y="74" width="292" height="72" rx="8" ry="8" class="nodeFile"/>
      </g>
    </g>
  </g>
  <g id='Edges'>
    <path class="line" d="M482.5 865 C 492.5 885,62.5 885, 72.5 905" fill="none" stroke="#377E2288" />
    <path class="line" d="M482.5 865 C 492.5 885,362.5 885, 372.5 905" fill="none" stroke="#377E2288" />
    <path class="line" d="M632.5 785 C 642.5 845,62.5 845, 72.5 905" fill="none" stroke="#377E2288" />
    <path class="line" d="M632.5 785 C 642.5 805,212.5 805, 222.5 825" fill="none" stroke="#377E2288" />
    <path class="line" d="M332.5 785 C 342.5 805,212.5 805, 222.5 825" fill="none" stroke="#377E2288" />
    <path class="line" d="M632.5 705 C 642.5 765,212.5 765, 222.5 825" fill="none" stroke="#377E2288" />
    <path class="line" d="M632.5 705 C 642.5 725,62.5 725, 72.5 745" fill="none" stroke="#377E2288" />
    <path class="line" d="M800 280 C 820 592,52.5 593, 72.5 905" fill="none" stroke="#377E2288" />
    <path class="line" d="M800 280 C 818 552,204.5 553, 222.5 825" fill="none" stroke="#377E2288" />
    <path class="line" d="M800 280 C 810 432,62.5 433, 72.5 585" fill="none" stroke="#377E2288" />
    <path class="line" d="M800 280 C 810 317,530 318, 540 355" fill="none" stroke="#377E2288" />
    <path class="line" d="M800 280 C 810 317,830 318, 840 355" fill="none" stroke="#377E2288" />
    <path class="line" d="M800 280 C 810 317,230 318, 240 355" fill="none" stroke="#377E2288" />
    <path class="line" d="M800 280 C 810 432,697.5 433, 707.5 585" fill="none" stroke="#377E2288" />
    <path class="line" d="M332.5 625 C 342.5 725,212.5 725, 222.5 825" fill="none" stroke="#377E2288" />
    <path class="line" d="M332.5 625 C 342.5 685,62.5 685, 72.5 745" fill="none" stroke="#377E2288" />
    <path class="line" d="M332.5 625 C 342.5 645,362.5 645, 372.5 665" fill="none" stroke="#377E2288" />
    <path class="line" d="M967.5 130 C 992.5 517,47.5 518, 72.5 905" fill="none" stroke="#377E2288" />
    <path class="line" d="M967.5 130 C 977.5 185,530 185, 540 240" fill="none" stroke="#377E2288" />
    <path class="line" d="M332.5 705 C 342.5 805,62.5 805, 72.5 905" fill="none" stroke="#377E2288" />
    <path class="line" d="M332.5 705 C 342.5 725,362.5 725, 372.5 745" fill="none" stroke="#377E2288" />
    <path class="line" d="M332.5 705 C 342.5 805,362.5 805, 372.5 905" fill="none" stroke="#377E2288" />
    <path class="line" d="M632.5 625 C 642.5 765,62.5 765, 72.5 905" fill="none" stroke="#377E2288" />
    <path class="line" d="M632.5 625 C 642.5 725,212.5 725, 222.5 825" fill="none" stroke="#377E2288" />
    <path class="line" d="M632.5 625 C 642.5 645,62.5 645, 72.5 665" fill="none" stroke="#377E2288" />
    <path class="line" d="M800 395 C 817 650,55.5 650, 72.5 905" fill="none" stroke="#377E2288" />
    <path class="line" d="M800 395 C 814 610,208.5 610, 222.5 825" fill="none" stroke="#377E2288" />
    <path class="line" d="M800 395 C 810 490,62.5 490, 72.5 585" fill="none" stroke="#377E2288" />
    <path class="line" d="M800 395 C 810 415,530 415, 540 435" fill="none" stroke="#377E2288" />
    <path class="line" d="M1100 395 C 1117 650,55.5 650, 72.5 905" fill="none" stroke="#377E2288" />
    <path class="line" d="M1100 395 C 1110 490,62.5 490, 72.5 585" fill="none" stroke="#377E2288" />
    <path class="line" d="M1100 395 C 1110 490,362.5 490, 372.5 585" fill="none" stroke="#377E2288" />
    <path class="line" d="M1100 395 C 1110 415,530 415, 540 435" fill="none" stroke="#377E2288" />
    <path class="line" d="M500 395 C 517 650,55.5 650, 72.5 905" fill="none" stroke="#377E2288" />
    <path class="line" d="M500 395 C 514 610,208.5 610, 222.5 825" fill="none" stroke="#377E2288" />
    <path class="line" d="M500 395 C 510 490,62.5 490, 72.5 585" fill="none" stroke="#377E2288" />
    <path class="line" d="M500 395 C 510 490,362.5 490, 372.5 585" fill="none" stroke="#377E2288" />
    <path class="line" d="M500 395 C 510 415,530 415, 540 435" fill="none" stroke="#377E2288" />
    <path class="line" d="M800 475 C 814 690,58.5 690, 72.5 905" fill="none" stroke="#377E2288" />
    <path class="line" d="M800 475 C 811 650,211.5 650, 222.5 825" fill="none" stroke="#377E2288" />
    <path class="line" d="M800 475 C 810 610,62.5 610, 72.5 745" fill="none" stroke="#377E2288" />
    <path class="line" d="M800 475 C 810 570,362.5 570, 372.5 665" fill="none" stroke="#377E2288" />
    <path class="line" d="M800 475 C 810 530,62.5 530, 72.5 585" fill="none" stroke="#377E2288" />
    <path class="line" d="M800 475 C 810 570,62.5 570, 72.5 665" fill="none" stroke="#377E2288" />
    <path class="line" d="M800 475 C 810 530,362.5 530, 372.5 585" fill="none" stroke="#377E2288" />
    <path class="line" d="M800 475 C 814 690,358.5 690, 372.5 905" fill="none" stroke="#377E2288" />
    <path class="line" d="M800 475 C 810 530,697.5 530, 707.5 585" fill="none" stroke="#377E2288" />
    <path class="line" d="M800 475 C 810 530,997.5 530, 1007.5 585" fill="none" stroke="#377E2288" />
    <path class="line" d="M632.5 130 C 657.5 517,47.5 518, 72.5 905" fill="none" stroke="#377E2288" />
    <path class="line" d="M632.5 130 C 655.5 477,199.5 478, 222.5 825" fill="none" stroke="#377E2288" />
    <path class="line" d="M632.5 130 C 647.5 357,57.5 358, 72.5 585" fill="none" stroke="#377E2288" />
    <path class="line" d="M632.5 130 C 642.5 242,530 243, 540 355" fill="none" stroke="#377E2288" />
    <path class="line" d="M632.5 130 C 642.5 242,830 243, 840 355" fill="none" stroke="#377E2288" />
    <path class="line" d="M632.5 130 C 642.5 242,230 243, 240 355" fill="none" stroke="#377E2288" />
  </g>
  <g id='Counters_glad'>
    <g id='Counters_lib'>
      <g id='Counters_glad.js'>
        <g>
          <circle cx="800" cy="280" r="10" fill="green"/>
          <text x="800" y="280" fill="white" font-size="10" text-anchor="middle" dominant-baseline="central">7</text>
        </g>
        <g>
          <circle cx="540" cy="240" r="10" fill="blue"/>
          <text x="540" y="240" fill="white" font-size="10" text-anchor="middle" dominant-baseline="central">1</text>
        </g>
      </g>
      <g id='Counters_render'>
        <g id='Counters_renderAsPoster.js'>
          <g>
            <circle cx="500" cy="395" r="10" fill="green"/>
            <text x="500" y="395" fill="white" font-size="10" text-anchor="middle" dominant-baseline="central">5</text>
          </g>
          <g>
            <circle cx="240" cy="355" r="10" fill="blue"/>
            <text x="240" y="355" fill="white" font-size="10" text-anchor="middle" dominant-baseline="central">2</text>
          </g>
        </g>
        <g id='Counters_renderAsGrid.js'>
          <g>
            <circle cx="800" cy="395" r="10" fill="green"/>
            <text x="800" y="395" fill="white" font-size="10" text-anchor="middle" dominant-baseline="central">4</text>
          </g>
          <g>
            <circle cx="540" cy="355" r="10" fill="blue"/>
            <text x="540" y="355" fill="white" font-size="10" text-anchor="middle" dominant-baseline="central">2</text>
          </g>
        </g>
        <g id='Counters_renderAsLayers.js'>
          <g>
            <circle cx="1100" cy="395" r="10" fill="green"/>
            <text x="1100" y="395" fill="white" font-size="10" text-anchor="middle" dominant-baseline="central">4</text>
          </g>
          <g>
            <circle cx="840" cy="355" r="10" fill="blue"/>
            <text x="840" y="355" fill="white" font-size="10" text-anchor="middle" dominant-baseline="central">2</text>
          </g>
        </g>
        <g id='Counters_renderBase.js'>
          <g>
            <circle cx="800" cy="475" r="10" fill="green"/>
            <text x="800" y="475" fill="white" font-size="10" text-anchor="middle" dominant-baseline="central">10</text>
          </g>
          <g>
            <circle cx="540" cy="435" r="10" fill="blue"/>
            <text x="540" y="435" fill="white" font-size="10" text-anchor="middle" dominant-baseline="central">3</text>
          </g>
        </g>
      </g>
      <g id='Counters_models'>
        <g id='Counters_graph.js'>
          <g>
            <circle cx="332.5" cy="625" r="10" fill="green"/>
            <text x="332.5" y="625" fill="white" font-size="10" text-anchor="middle" dominant-baseline="central">3</text>
          </g>
          <g>
            <circle cx="72.5" cy="585" r="10" fill="blue"/>
            <text x="72.5" y="585" fill="white" font-size="10" text-anchor="middle" dominant-baseline="central">6</text>
          </g>
        </g>
        <g id='Counters_layers.js'>
          <g>
            <circle cx="632.5" cy="625" r="10" fill="green"/>
            <text x="632.5" y="625" fill="white" font-size="10" text-anchor="middle" dominant-baseline="central">3</text>
          </g>
          <g>
            <circle cx="372.5" cy="585" r="10" fill="blue"/>
            <text x="372.5" y="585" fill="white" font-size="10" text-anchor="middle" dominant-baseline="central">3</text>
          </g>
        </g>
        <g id='Counters_layer.js'>
          <g>
            <circle cx="332.5" cy="705" r="10" fill="green"/>
            <text x="332.5" y="705" fill="white" font-size="10" text-anchor="middle" dominant-baseline="central">3</text>
          </g>
          <g>
            <circle cx="72.5" cy="665" r="10" fill="blue"/>
            <text x="72.5" y="665" fill="white" font-size="10" text-anchor="middle" dominant-baseline="central">2</text>
          </g>
        </g>
        <g id='Counters_edges.js'>
          <g>
            <circle cx="632.5" cy="705" r="10" fill="green"/>
            <text x="632.5" y="705" fill="white" font-size="10" text-anchor="middle" dominant-baseline="central">2</text>
          </g>
          <g>
            <circle cx="372.5" cy="665" r="10" fill="blue"/>
            <text x="372.5" y="665" fill="white" font-size="10" text-anchor="middle" dominant-baseline="central">2</text>
          </g>
        </g>
        <g id='Counters_edge.js'>
          <g>
            <circle cx="332.5" cy="785" r="10" fill="green"/>
            <text x="332.5" y="785" fill="white" font-size="10" text-anchor="middle" dominant-baseline="central">1</text>
          </g>
          <g>
            <circle cx="72.5" cy="745" r="10" fill="blue"/>
            <text x="72.5" y="745" fill="white" font-size="10" text-anchor="middle" dominant-baseline="central">3</text>
          </g>
        </g>
        <g id='Counters_containers.js'>
          <g>
            <circle cx="632.5" cy="785" r="10" fill="green"/>
            <text x="632.5" y="785" fill="white" font-size="10" text-anchor="middle" dominant-baseline="central">2</text>
          </g>
          <g>
            <circle cx="372.5" cy="745" r="10" fill="blue"/>
            <text x="372.5" y="745" fill="white" font-size="10" text-anchor="middle" dominant-baseline="central">1</text>
          </g>
        </g>
        <g id='Counters_container.js'>
          <g>
            <circle cx="482.5" cy="865" r="10" fill="green"/>
            <text x="482.5" y="865" fill="white" font-size="10" text-anchor="middle" dominant-baseline="central">2</text>
          </g>
          <g>
            <circle cx="222.5" cy="825" r="10" fill="blue"/>
            <text x="222.5" y="825" fill="white" font-size="10" text-anchor="middle" dominant-baseline="central">10</text>
          </g>
        </g>
        <g id='Counters_constants.js'>
          <g>
            <circle cx="72.5" cy="905" r="10" fill="blue"/>
            <text x="72.5" y="905" fill="white" font-size="10" text-anchor="middle" dominant-baseline="central">11</text>
          </g>
        </g>
        <g id='Counters_rectangle.js'>
          <g>
            <circle cx="372.5" cy="905" r="10" fill="blue"/>
            <text x="372.5" y="905" fill="white" font-size="10" text-anchor="middle" dominant-baseline="central">3</text>
          </g>
        </g>
      </g>
      <g id='Counters_util'>
        <g id='Counters_strings.js'>
          <g>
            <circle cx="707.5" cy="585" r="10" fill="blue"/>
            <text x="707.5" y="585" fill="white" font-size="10" text-anchor="middle" dominant-baseline="central">2</text>
          </g>
        </g>
        <g id='Counters_svg.js'>
          <g>
            <circle cx="1007.5" cy="585" r="10" fill="blue"/>
            <text x="1007.5" y="585" fill="white" font-size="10" text-anchor="middle" dominant-baseline="central">1</text>
          </g>
        </g>
      </g>
    </g>
    <g id='Counters_test'>
      <g id='Counters_test.js'>
        <g>
          <circle cx="632.5" cy="130" r="10" fill="green"/>
          <text x="632.5" y="130" fill="white" font-size="10" text-anchor="middle" dominant-baseline="central">6</text>
        </g>
      </g>
    </g>
    <g id='Counters_cli'>
      <g id='Counters_index.js'>
        <g>
          <circle cx="967.5" cy="130" r="10" fill="green"/>
          <text x="967.5" y="130" fill="white" font-size="10" text-anchor="middle" dominant-baseline="central">2</text>
        </g>
      </g>
    </g>
  </g>
  <g id='Labels_glad'>
    <text class="folderName" x="10" y="10">glad</text>
    <g id='Labels_lib'>
      <text class="folderName" x="27.5" y="195">lib</text>
      <g id='Labels_glad.js'>
        <text class="nodeName" x="670" y="260" font-size="120%">glad.js</text>
      </g>
      <g id='Labels_render'>
        <text class="folderName" x="212.5" y="310">render</text>
        <g id='Labels_renderAsPoster.js'>
          <text class="nodeName" x="370" y="375" font-size="120%">renderAsPoster.js</text>
        </g>
        <g id='Labels_renderAsGrid.js'>
          <text class="nodeName" x="670" y="375" font-size="120%">renderAsGrid.js</text>
        </g>
        <g id='Labels_renderAsLayers.js'>
          <text class="nodeName" x="970" y="375" font-size="120%">renderAsLayers.js</text>
        </g>
        <g id='Labels_renderBase.js'>
          <text class="nodeName" x="670" y="455" font-size="120%">renderBase.js</text>
        </g>
      </g>
      <g id='Labels_models'>
        <text class="folderName" x="45" y="540">models</text>
        <g id='Labels_graph.js'>
          <text class="nodeName" x="202.5" y="605" font-size="120%">graph.js</text>
        </g>
        <g id='Labels_layers.js'>
          <text class="nodeName" x="502.5" y="605" font-size="120%">layers.js</text>
        </g>
        <g id='Labels_layer.js'>
          <text class="nodeName" x="202.5" y="685" font-size="120%">layer.js</text>
        </g>
        <g id='Labels_edges.js'>
          <text class="nodeName" x="502.5" y="685" font-size="120%">edges.js</text>
        </g>
        <g id='Labels_edge.js'>
          <text class="nodeName" x="202.5" y="765" font-size="120%">edge.js</text>
        </g>
        <g id='Labels_containers.js'>
          <text class="nodeName" x="502.5" y="765" font-size="120%">containers.js</text>
        </g>
        <g id='Labels_container.js'>
          <text class="nodeName" x="352.5" y="845" font-size="120%">container.js</text>
        </g>
        <g id='Labels_constants.js'>
          <text class="nodeName" x="202.5" y="925" font-size="120%">constants.js</text>
        </g>
        <g id='Labels_rectangle.js'>
          <text class="nodeName" x="502.5" y="925" font-size="120%">rectangle.js</text>
        </g>
      </g>
      <g id='Labels_util'>
        <text class="folderName" x="680" y="540">util</text>
        <g id='Labels_strings.js'>
          <text class="nodeName" x="837.5" y="605" font-size="120%">strings.js</text>
        </g>
        <g id='Labels_svg.js'>
          <text class="nodeName" x="1137.5" y="605" font-size="120%">svg.js</text>
        </g>
      </g>
    </g>
    <g id='Labels_test'>
      <text class="folderName" x="345" y="45">test</text>
      <g id='Labels_test.js'>
        <text class="nodeName" x="502.5" y="110" font-size="120%">test.js</text>
      </g>
    </g>
    <g id='Labels_cli'>
      <text class="folderName" x="680" y="45">cli</text>
      <g id='Labels_index.js'>
        <text class="nodeName" x="837.5" y="110" font-size="120%">index.js</text>
      </g>
    </g>
  </g>
  <g id='Layers_Text'>
    <g id='Layer:0 of glad'>
      <text x="1312.5" y="45" class='layerText' dominant-baseline="hanging" text-anchor="end" >1 </text>
    </g>
    <g id='Layer:0 of test'>
      <text x="642.5" y="80" class='layerText' dominant-baseline="hanging" text-anchor="end" >1 </text>
    </g>
    <g id='Layer:0 of cli'>
      <text x="977.5" y="80" class='layerText' dominant-baseline="hanging" text-anchor="end" >1 </text>
    </g>
    <g id='Layer:1 of glad'>
      <text x="1312.5" y="195" class='layerText' dominant-baseline="hanging" text-anchor="end" >2 </text>
    </g>
    <g id='Layer:0 of lib'>
      <text x="1295" y="230" class='layerText' dominant-baseline="hanging" text-anchor="end" >1 </text>
    </g>
    <g id='Layer:1 of lib'>
      <text x="1295" y="310" class='layerText' dominant-baseline="hanging" text-anchor="end" >2 </text>
    </g>
    <g id='Layer:0 of render'>
      <text x="1110" y="345" class='layerText' dominant-baseline="hanging" text-anchor="end" >1 </text>
    </g>
    <g id='Layer:1 of render'>
      <text x="1110" y="425" class='layerText' dominant-baseline="hanging" text-anchor="end" >2 </text>
    </g>
    <g id='Layer:2 of lib'>
      <text x="1295" y="540" class='layerText' dominant-baseline="hanging" text-anchor="end" >3 </text>
    </g>
    <g id='Layer:0 of models'>
      <text x="642.5" y="575" class='layerText' dominant-baseline="hanging" text-anchor="end" >1 </text>
    </g>
    <g id='Layer:1 of models'>
      <text x="642.5" y="655" class='layerText' dominant-baseline="hanging" text-anchor="end" >2 </text>
    </g>
    <g id='Layer:2 of models'>
      <text x="642.5" y="735" class='layerText' dominant-baseline="hanging" text-anchor="end" >3 </text>
    </g>
    <g id='Layer:3 of models'>
      <text x="642.5" y="815" class='layerText' dominant-baseline="hanging" text-anchor="end" >4 </text>
    </g>
    <g id='Layer:4 of models'>
      <text x="642.5" y="895" class='layerText' dominant-baseline="hanging" text-anchor="end" >5 </text>
    </g>
    <g id='Layer:0 of util'>
      <text x="1277.5" y="575" class='layerText' dominant-baseline="hanging" text-anchor="end" >1 </text>
    </g>
  </g>
</svg>